<svg xmlns="http://www.w3.org/2000/svg" width="49.501" height="27.001" viewBox="0 0 49.501 27.001" fill="none">
  <path d="M 39.49 22.379 L 38.048 22.51 C 36.813 22.622 35.899 23.716 36.01 24.953 C 36.122 26.188 37.216 27.102 38.453 26.992 L 47.453 26.182 C 48.205 26.114 48.873 25.673 49.231 25.007 C 49.591 24.341 49.591 23.542 49.233 22.876 L 45.073 15.132 C 44.485 14.038 43.122 13.627 42.026 14.214 C 40.933 14.801 40.521 16.167 41.11 17.26 L 41.763 18.478 L 3.214 0.217 C 2.091 -0.314 0.75 0.165 0.217 1.288 C -0.314 2.41 0.165 3.751 1.288 4.285 L 39.49 22.379 Z" fill="currentColor" fill-rule="evenodd"></path>
</svg>