<svg xmlns="http://www.w3.org/2000/svg" width="67.500" height="47.250" viewBox="0 0 67.500 47.250" fill="none">
  <path d="M 27 42.75 L 20.25 42.75 L 20.25 4.5 C 20.25 3.308 19.775 2.162 18.931 1.318 C 18.088 0.475 16.942 0 15.75 0 C 13.253 0 13.747 0 11.25 0 C 10.057 0 8.912 0.475 8.068 1.318 C 7.225 2.162 6.75 3.308 6.75 4.5 L 6.75 42.75 L 2.25 42.75 C 1.008 42.75 0 43.758 0 45 C 0 46.242 1.008 47.25 2.25 47.25 L 65.25 47.25 C 66.492 47.25 67.5 46.242 67.5 45 C 67.5 43.758 66.492 42.75 65.25 42.75 L 60.75 42.75 L 60.75 22.5 C 60.75 20.016 58.736 18 56.25 18 C 53.752 18 54.248 18 51.75 18 C 49.264 18 47.25 20.016 47.25 22.5 L 47.25 42.75 L 40.5 42.75 L 40.5 13.5 C 40.5 12.308 40.025 11.162 39.181 10.319 C 38.338 9.475 37.193 9 36 9 C 33.502 9 33.998 9 31.5 9 C 30.308 9 29.162 9.475 28.319 10.319 C 27.475 11.162 27 12.308 27 13.5 L 27 42.75 Z" fill="currentColor" fill-rule="evenodd"></path>
</svg>